# xmcd
#
# Track frame offsets: 
#        182
#        13885
#        25782
#        40077
#        52110
#        63985
#        74672
#        84350
#        94095
#        104987
#        117717
#        131307
#        142945
#        157190
#        169847
#        182487
#        196745
#        207267
#        218897
#        233870
#        245905
#        258862
#        270325
#        283685
#        300577
#
# Disc length: 4166 seconds
#
# Revision: 6
# Processed by: cddbd v1.5.2PL0 Copyright (c) Steve Scherf et al.
# Submitted via: ExactAudioCopyFreeDBPlugin 1.0
#
DISCID=73104419
DTITLE=Various Artist - The Swingtime Records Story [Capricorn box se
DTITLE=t]
DYEAR=1994
DGENRE=Rhythm and Blues
TTITLE0=Percy Mayfield - Two Years of Torture (with the Monroe Tucker 
TTITLE0=Band)
TTITLE1=Percy Mayfield - Baby You're Still a Square
TTITLE2=Ray Charles - Someday
TTITLE3=Ray Charles - I'll Do Anything But Work
TTITLE4=Clifford "Fat Man" Blivens - Korea Blues (with the Johnny Otis
TTITLE4=Band)
TTITLE5=Lloyd Glenn's Combo - Chica Boo
TTITLE6=Lloyd Glenn with Th' Fulson Unit - Old Time Shuffle Blues
TTITLE7=Lowell Fulson - Sinner's Prayers
TTITLE8=Jessie Thomas with Lloyd Glenn - I Can't Stay Here
TTITLE9=Ray Charles - Lonely Boy
TTITLE10=Jimmy McCracklin - Rockin' Man
TTITLE11=Lowell Fulson - I'm a Night Owl, Pt. 1
TTITLE12=Ray Charles - Kissa Me Baby
TTITLE13=Ray Charles - The Snow is Falling
TTITLE14=Lowell Fulson - Let Me Ride in Your Little Automobile
TTITLE15=Joe Pullum with Lloyd Glenn - My Woman
TTITLE16=Jimmy McCracklin - Blues for the People
TTITLE17=Lowell Fulson - I Love My Baby
TTITLE18=Ray Charles - I'm Wondering and Wondering
TTITLE19=Lloyd Glenn - It Moves Me
TTITLE20=Earl Brown - Lovin' a Married Woman (with the Red Calendar Co
TTITLE20=mbo)
TTITLE21=Ray Charles - Guitar Blues
TTITLE22=Three Musketeers - Love Me Till Your Dying Day
TTITLE23=Playboy Thomas - End of the Road Baby
TTITLE24=The Hollywood Flames - I Know
EXTD=YEAR: 1994
EXTT0=
EXTT1=
EXTT2=
EXTT3=
EXTT4=
EXTT5=
EXTT6=
EXTT7=
EXTT8=
EXTT9=
EXTT10=
EXTT11=
EXTT12=
EXTT13=
EXTT14=
EXTT15=
EXTT16=
EXTT17=
EXTT18=
EXTT19=
EXTT20=
EXTT21=
EXTT22=
EXTT23=
EXTT24=
PLAYORDER=
